<?xml version="1.0" encoding="utf-8"?>
<svg xmlns="http://www.w3.org/2000/svg" style="margin: auto; background: rgb(0, 0, 0); display: block; shape-rendering: auto;" width="281" height="95" preserveAspectRatio="xMidYMid">
<style type="text/css">
  text {
    text-anchor: middle; font-size: 80px; opacity: 0;
  }
</style>
<g style="transform-origin:140.5px 47.5px;transform:scale(1)">
<g transform="translate(140.5,47.5)">
  <g transform="translate(0,0)"><g class="path" style="opacity: 1; transform-origin: -79.56px -6.5472px; animation: 1s linear -0.495s infinite normal forwards running fade-22e9cdfd-d611-485f-95ad-02b5d6339806;"><path d="M1.52 0L20.24-54.56L28.56-54.56L47.28 0L40.32 0L35.52-14.56L13.36-14.56L8.48 0L1.52 0zM15.44-20.96L33.36-20.96L24.56-48.16L24.32-48.16L15.44-20.96" fill="#ffffff" stroke="none" stroke-width="none" transform="translate(-103.96000289916992,20.732799072265625)" style="fill: rgb(255, 255, 255);"></path></g><g class="path" style="opacity: 1; transform-origin: -18.96px -6.5472px; animation: 1s linear -0.33s infinite normal forwards running fade-22e9cdfd-d611-485f-95ad-02b5d6339806;"><path d="M62.08 0L49.44-54.56L56.24-54.56L66.80-6.40L66.88-6.40L80.88-54.56L89.36-54.56L103.20-6.40L103.28-6.40L113.76-54.56L120.56-54.56L108 0L99.52 0L85.12-48.08L85.04-48.08L70.56 0L62.08 0" fill="#ffffff" stroke="none" stroke-width="none" transform="translate(-103.96000289916992,20.732799072265625)" style="fill: rgb(255, 255, 255);"></path></g><g class="path" style="opacity: 1; transform-origin: 41.72px -6.5472px; animation: 1s linear -0.165s infinite normal forwards running fade-22e9cdfd-d611-485f-95ad-02b5d6339806;"><path d="M122.80 0L141.52-54.56L149.84-54.56L168.56 0L161.60 0L156.80-14.56L134.64-14.56L129.76 0L122.80 0zM136.72-20.96L154.64-20.96L145.84-48.16L145.60-48.16L136.72-20.96" fill="#ffffff" stroke="none" stroke-width="none" transform="translate(-103.96000289916992,20.732799072265625)" style="fill: rgb(255, 255, 255);"></path></g><g class="path" style="opacity: 1; transform-origin: 84.64px -6.5472px; animation: 1s linear 0s infinite normal forwards running fade-22e9cdfd-d611-485f-95ad-02b5d6339806;"><path d="M185.20 0L185.20-19.84L167.76-54.56L175.20-54.56L188.56-28.08L202-54.56L209.44-54.56L192-19.84L192 0L185.20 0" fill="#ffffff" stroke="none" stroke-width="none" transform="translate(-103.96000289916992,20.732799072265625)" style="fill: rgb(255, 255, 255);"></path></g></g>
</g>
</g>
<style id="fade-22e9cdfd-d611-485f-95ad-02b5d6339806" data-anikit="">@keyframes fade-22e9cdfd-d611-485f-95ad-02b5d6339806
{
  0% {
    animation-timing-function: cubic-bezier(0.2057,0.573,0.3723,0.9184);
    opacity: 1;
  }
  100% {
    opacity: 0;
  }
}</style></svg>